<?xml version="1.0" encoding="UTF-8" standalone="no" ?>
<!DOCTYPE svg PUBLIC "-//W3C//DTD SVG 1.1//EN" "http://www.w3.org/Graphics/SVG/1.1/DTD/svg11.dtd">
<svg xmlns="http://www.w3.org/2000/svg" xmlns:xlink="http://www.w3.org/1999/xlink" version="1.1" width="400" height="400" viewBox="0 0 400 400" xml:space="preserve">
<desc>Created with Fabric.js 3.6.6</desc>
<defs>
</defs>
<g transform="matrix(0.58 0 0 0.58 198.85 200.85)"  >
<g style=""   >
		<g transform="matrix(11.11 0 0 11.11 0 55.56)" id="SVGRepo_iconCarrier"  >
<path style="stroke: rgb(67,198,172); stroke-width: 1; stroke-dasharray: none; stroke-linecap: butt; stroke-dashoffset: 0; stroke-linejoin: miter; stroke-miterlimit: 4; fill: rgb(67,198,172); fill-rule: nonzero; opacity: 1;"  transform=" translate(-30, -35)" d="M 59 11.5 h -6 v 2 h 5 v 4 h -5 v 2 h 5 v 37 H 2 v -37 h 5 v -2 H 2 v -4 h 5 v -2 H 1 c -0.6 0 -1 0.4 -1 1 v 45 c 0 0.6 0.4 1 1 1 h 58 c 0.6 0 1 -0.4 1 -1 v -45 C 60 11.9 59.6 11.5 59 11.5 z" stroke-linecap="round" />
</g>
		<g transform="matrix(11.11 0 0 11.11 0 -61.11)" id="SVGRepo_iconCarrier"  >
<path style="stroke: rgb(67,198,172); stroke-width: 1; stroke-dasharray: none; stroke-linecap: butt; stroke-dashoffset: 0; stroke-linejoin: miter; stroke-miterlimit: 4; fill: rgb(67,198,172); fill-rule: nonzero; opacity: 1;"  transform=" translate(-30, -24.5)" d="M 6 45.5 v 2 h 48 v -2 h -3 v -43 c 0 -0.6 -0.4 -1 -1 -1 H 10 c -0.6 0 -1 0.4 -1 1 v 43 H 6 z M 43 45.5 H 17 v -14 h 26 V 45.5 z M 11 3.5 h 7 v 3 h -2 v 2 h 6 v -2 h -2 v -3 h 9 v 3 h -2 v 2 h 6 v -2 h -2 v -3 h 9 v 3 h -2 v 2 h 6 v -2 h -2 v -3 h 7 v 42 h -4 v -14 h 2 v -2 h -3 H 16 h -3 v 2 h 2 v 14 h -4 V 3.5 z" stroke-linecap="round" />
</g>
		<g transform="matrix(11.11 0 0 11.11 -116.67 -122.22)" id="SVGRepo_iconCarrier"  >
<path style="stroke: rgb(67,198,172); stroke-width: 1; stroke-dasharray: none; stroke-linecap: butt; stroke-dashoffset: 0; stroke-linejoin: miter; stroke-miterlimit: 4; fill: rgb(67,198,172); fill-rule: nonzero; opacity: 1;"  transform=" translate(-19.5, -19)" d="M 17 20.5 h 5 v 6 h 2 v -14 c 0 -0.6 -0.4 -1 -1 -1 h -7 c -0.6 0 -1 0.4 -1 1 v 14 h 2 V 20.5 z M 22 13.5 v 5 h -5 v -5 H 22 z" stroke-linecap="round" />
</g>
		<g transform="matrix(11.11 0 0 11.11 0 -122.22)" id="SVGRepo_iconCarrier"  >
<path style="stroke: rgb(67,198,172); stroke-width: 1; stroke-dasharray: none; stroke-linecap: butt; stroke-dashoffset: 0; stroke-linejoin: miter; stroke-miterlimit: 4; fill: rgb(67,198,172); fill-rule: nonzero; opacity: 1;"  transform=" translate(-30, -19)" d="M 27 26.5 h 4.5 c 1.4 0 2.5 -1.3 2.5 -3 v -9 c 0 -1.7 -1.1 -3 -2.5 -3 H 27 c -0.6 0 -1 0.4 -1 1 v 13 C 26 26.1 26.4 26.5 27 26.5 z M 28 13.5 h 3.5 c 0.1 0 0.5 0.4 0.5 1 v 9 c 0 0.6 -0.4 1 -0.5 1 H 28 V 13.5 z" stroke-linecap="round" />
</g>
		<g transform="matrix(11.11 0 0 11.11 116.67 -122.78)" id="SVGRepo_iconCarrier"  >
<path style="stroke: rgb(67,198,172); stroke-width: 1; stroke-dasharray: none; stroke-linecap: butt; stroke-dashoffset: 0; stroke-linejoin: miter; stroke-miterlimit: 4; fill: rgb(67,198,172); fill-rule: nonzero; opacity: 1;"  transform=" translate(-40.5, -18.95)" d="M 40 26.5 h 1 c 2.2 0 4 -1.8 4 -4 v -1 c 0 -2.2 -1.8 -4 -4 -4 h -1 c -1.1 0 -2 -0.7 -2 -1.6 V 15 c 0 -0.9 0.9 -1.6 2 -1.6 h 1 c 1.1 0 2 0.7 2 1.6 v 0.5 h 2 V 15 c 0 -2 -1.8 -3.6 -4 -3.6 h -1 c -2.2 0 -4 1.6 -4 3.6 v 0.9 c 0 2 1.8 3.6 4 3.6 h 1 c 1.1 0 2 0.9 2 2 v 1 c 0 1.1 -0.9 2 -2 2 h -1 c -1.1 0 -2 -0.9 -2 -2 v -1 h -2 v 1 C 36 24.7 37.8 26.5 40 26.5 z" stroke-linecap="round" />
</g>
</g>
</g>
</svg>