<?xml version="1.0" encoding="UTF-8" standalone="no" ?>
<!DOCTYPE svg PUBLIC "-//W3C//DTD SVG 1.1//EN" "http://www.w3.org/Graphics/SVG/1.1/DTD/svg11.dtd">
<svg xmlns="http://www.w3.org/2000/svg" xmlns:xlink="http://www.w3.org/1999/xlink" version="1.1" width="400" height="400" viewBox="0 0 400 400" xml:space="preserve">
<desc>Created with Fabric.js 3.6.6</desc>
<defs>
</defs>
<g transform="matrix(0.68 0 0 0.68 199.6 199.6)"  >
<g style=""   >
		<g transform="matrix(8 0 0 8 78.8 -14.85)"  >
<path style="stroke: none; stroke-width: 1; stroke-dasharray: none; stroke-linecap: butt; stroke-dashoffset: 0; stroke-linejoin: miter; stroke-miterlimit: 4; fill: rgb(67,198,172); fill-rule: nonzero; opacity: 1;"  transform=" translate(-59.85, -48.14)" d="M 61.8 29.4 l 8.9 8.9 l 0 0 c 2 1.9 2 5.1 0 7 l 0 0 L 47.5 68.4 V 47.3 V 36.6 l 7.2 -7.3 C 56.6 27.4 59.9 27.4 61.8 29.4 z" stroke-linecap="round" />
</g>
		<g transform="matrix(8 0 0 8 -150.39 0)"  >
<path style="stroke: none; stroke-width: 1; stroke-dasharray: none; stroke-linecap: butt; stroke-dashoffset: 0; stroke-linejoin: miter; stroke-miterlimit: 4; fill: rgb(67,198,172); fill-rule: nonzero; opacity: 1;"  transform=" translate(-31.2, -50)" d="M 37.5 20 H 25 c -2.8 0 -5 2.2 -5 5 v 43.8 C 20 75 25 80 31.2 80 s 11.2 -5 11.2 -11.2 V 25 C 42.5 22.2 40.2 20 37.5 20 z M 31.2 73.8 c -2.8 0 -5 -2.2 -5 -5 s 2.2 -5 5 -5 s 5 2.2 5 5 S 34 73.8 31.2 73.8 z" stroke-linecap="round" />
</g>
		<g transform="matrix(8 0 0 8 95.2 150)"  >
<path style="stroke: none; stroke-width: 1; stroke-dasharray: none; stroke-linecap: butt; stroke-dashoffset: 0; stroke-linejoin: miter; stroke-miterlimit: 4; fill: rgb(67,198,172); fill-rule: nonzero; opacity: 1;"  transform=" translate(-61.9, -68.75)" d="M 75 57.5 h -8.8 l -6 6 H 74 L 73.9 74 H 49.8 l -6 6 H 75 c 2.8 0 5 -2.2 5 -5 V 62.5 C 80 59.8 77.8 57.5 75 57.5 L 75 57.5 z" stroke-linecap="round" />
</g>
</g>
</g>
</svg>