<?xml version="1.0" encoding="UTF-8" standalone="no" ?>
<!DOCTYPE svg PUBLIC "-//W3C//DTD SVG 1.1//EN" "http://www.w3.org/Graphics/SVG/1.1/DTD/svg11.dtd">
<svg xmlns="http://www.w3.org/2000/svg" xmlns:xlink="http://www.w3.org/1999/xlink" version="1.1" width="400" height="400" viewBox="0 0 400 400" xml:space="preserve">
<desc>Created with Fabric.js 3.6.6</desc>
<defs>
</defs>
<g transform="matrix(18.28 0 0 18.28 202.77 200.23)"  >
<path style="stroke: none; stroke-width: 0; stroke-dasharray: none; stroke-linecap: butt; stroke-dashoffset: 0; stroke-linejoin: miter; stroke-miterlimit: 4; fill: rgb(67,198,172); fill-rule: nonzero; opacity: 1;" vector-effect="non-scaling-stroke"  transform=" translate(-12, -12.75)" d="M 12 23.5 c -1 0 0.183 -1.579 -4.747 -4.035 a 7.857 7.857 0 0 1 -0.785 -0.45 C 4.015 17.419 2.5 14.5 2.5 11.358 C 2.5 6.19 6.753 2 12 2 s 9.5 4.19 9.5 9.357 c 0 3.462 -1.844 6.657 -4.745 8.104 C 11.82 21.92 13 23.5 12 23.5 z m 0 -8.39 c 2.111 0 3.8 -1.672 3.8 -3.705 C 15.8 9.372 14.111 7.7 12 7.7 c -2.111 0 -3.8 1.672 -3.8 3.705 c 0 2.033 1.689 3.705 3.8 3.705 z" stroke-linecap="round" />
</g>
</svg>